<svg width="25" height="24" viewBox="0 0 25 24" fill="none" xmlns="http://www.w3.org/2000/svg">
<g id="Link">
<g id="Vector">
<path d="M2.5 12C2.5 8.68629 5.18629 6 8.5 6H10C10.5523 6 11 6.44772 11 7C11 7.55228 10.5523 8 10 8H8.5C6.29086 8 4.5 9.79086 4.5 12C4.5 14.2091 6.29086 16 8.5 16H10C10.5523 16 11 16.4477 11 17C11 17.5523 10.5523 18 10 18H8.5C5.18629 18 2.5 15.3137 2.5 12ZM14 7C14 6.44772 14.4477 6 15 6H16.5C19.8137 6 22.5 8.68629 22.5 12C22.5 15.3137 19.8137 18 16.5 18H15C14.4477 18 14 17.5523 14 17C14 16.4477 14.4477 16 15 16H16.5C18.7091 16 20.5 14.2091 20.5 12C20.5 9.79086 18.7091 8 16.5 8H15C14.4477 8 14 7.55228 14 7ZM8.5 12C8.5 11.4477 8.94772 11 9.5 11H16.5C17.0523 11 17.5 11.4477 17.5 12C17.5 12.5523 17.0523 13 16.5 13H9.5C8.94772 13 8.5 12.5523 8.5 12Z" fill="white"/>
</g>
</g>
</svg>
