<svg width="118" height="118" viewBox="0 0 118 118" fill="none" xmlns="http://www.w3.org/2000/svg">
<g id="Frame 4302" filter="url(#filter0_dd_1_300)">
<rect x="12" y="2" width="94" height="94" rx="12" fill="#33383F"/>
<rect id="Rectangle 1726" x="12" y="3" width="93" height="93" fill="url(#paint0_linear_1_300)"/>
<g id="Subtract" filter="url(#filter1_di_1_300)">
<mask id="path-4-outside-1_1_300" maskUnits="userSpaceOnUse" x="29.8514" y="19.5946" width="59" height="59" fill="black">
<rect fill="white" x="29.8514" y="19.5946" width="59" height="59"/>
<path fill-rule="evenodd" clip-rule="evenodd" d="M59.1284 77.1487C74.7454 77.1487 87.4054 64.4886 87.4054 48.8716C87.4054 33.2547 74.7454 20.5946 59.1284 20.5946C43.5114 20.5946 30.8514 33.2547 30.8514 48.8716C30.8514 64.4886 43.5114 77.1487 59.1284 77.1487ZM61.1576 37.3893L61.0041 36.9744C60.3598 35.2332 57.897 35.2332 57.2527 36.9744L57.0992 37.3893C55.4786 41.7689 52.0256 45.2218 47.6461 46.8424L47.2312 46.9959C45.49 47.6402 45.49 50.103 47.2312 50.7473L47.6461 50.9009C52.0256 52.5214 55.4786 55.9744 57.0992 60.3539L57.2527 60.7688C57.897 62.5101 60.3598 62.5101 61.0041 60.7688L61.1576 60.3539C62.7782 55.9744 66.2312 52.5214 70.6107 50.9009L71.0256 50.7473C72.7668 50.103 72.7669 47.6402 71.0256 46.9959L70.6107 46.8424C66.2312 45.2218 62.7782 41.7689 61.1576 37.3893Z"/>
</mask>
<path fill-rule="evenodd" clip-rule="evenodd" d="M59.1284 77.1487C74.7454 77.1487 87.4054 64.4886 87.4054 48.8716C87.4054 33.2547 74.7454 20.5946 59.1284 20.5946C43.5114 20.5946 30.8514 33.2547 30.8514 48.8716C30.8514 64.4886 43.5114 77.1487 59.1284 77.1487ZM61.1576 37.3893L61.0041 36.9744C60.3598 35.2332 57.897 35.2332 57.2527 36.9744L57.0992 37.3893C55.4786 41.7689 52.0256 45.2218 47.6461 46.8424L47.2312 46.9959C45.49 47.6402 45.49 50.103 47.2312 50.7473L47.6461 50.9009C52.0256 52.5214 55.4786 55.9744 57.0992 60.3539L57.2527 60.7688C57.897 62.5101 60.3598 62.5101 61.0041 60.7688L61.1576 60.3539C62.7782 55.9744 66.2312 52.5214 70.6107 50.9009L71.0256 50.7473C72.7668 50.103 72.7669 47.6402 71.0256 46.9959L70.6107 46.8424C66.2312 45.2218 62.7782 41.7689 61.1576 37.3893Z" fill="url(#paint1_linear_1_300)"/>
<path d="M61.0041 36.9744L61.473 36.8009V36.8009L61.0041 36.9744ZM61.1576 37.3893L60.6887 37.5629V37.5629L61.1576 37.3893ZM57.2527 36.9744L56.7838 36.8009V36.8009L57.2527 36.9744ZM57.0992 37.3893L57.5681 37.5629V37.5629L57.0992 37.3893ZM47.6461 46.8424L47.4726 46.3735H47.4726L47.6461 46.8424ZM47.2312 46.9959L47.4047 47.4648H47.4047L47.2312 46.9959ZM47.2312 50.7473L47.0577 51.2163H47.0577L47.2312 50.7473ZM47.6461 50.9009L47.8196 50.4319L47.6461 50.9009ZM57.0992 60.3539L56.6302 60.5274L57.0992 60.3539ZM57.2527 60.7688L57.7216 60.5953L57.2527 60.7688ZM61.0041 60.7688L61.473 60.9424L61.0041 60.7688ZM61.1576 60.3539L60.6887 60.1804L61.1576 60.3539ZM70.6107 50.9009L70.4372 50.4319L70.6107 50.9009ZM71.0256 50.7473L71.1991 51.2163L71.0256 50.7473ZM71.0256 46.9959L71.1991 46.527L71.0256 46.9959ZM70.6107 46.8424L70.4372 47.3113L70.6107 46.8424ZM86.9054 48.8716C86.9054 64.2125 74.4692 76.6487 59.1284 76.6487V77.6487C75.0215 77.6487 87.9054 64.7647 87.9054 48.8716H86.9054ZM59.1284 21.0946C74.4692 21.0946 86.9054 33.5308 86.9054 48.8716H87.9054C87.9054 32.9785 75.0215 20.0946 59.1284 20.0946V21.0946ZM31.3514 48.8716C31.3514 33.5308 43.7876 21.0946 59.1284 21.0946V20.0946C43.2353 20.0946 30.3514 32.9785 30.3514 48.8716H31.3514ZM59.1284 76.6487C43.7876 76.6487 31.3514 64.2125 31.3514 48.8716H30.3514C30.3514 64.7647 43.2353 77.6487 59.1284 77.6487V76.6487ZM60.5352 37.1479L60.6887 37.5629L61.6266 37.2158L61.473 36.8009L60.5352 37.1479ZM57.7216 37.1479C58.2049 35.842 60.0519 35.842 60.5352 37.1479L61.473 36.8009C60.6676 34.6244 57.5892 34.6244 56.7838 36.8009L57.7216 37.1479ZM57.5681 37.5629L57.7216 37.1479L56.7838 36.8009L56.6302 37.2158L57.5681 37.5629ZM47.8196 47.3113C52.336 45.6401 55.8969 42.0792 57.5681 37.5629L56.6302 37.2158C55.0603 41.4585 51.7153 44.8035 47.4726 46.3735L47.8196 47.3113ZM47.4047 47.4648L47.8196 47.3113L47.4726 46.3735L47.0577 46.527L47.4047 47.4648ZM47.4047 50.2784C46.0988 49.7952 46.0988 47.9481 47.4047 47.4648L47.0577 46.527C44.8811 47.3324 44.8811 50.4109 47.0577 51.2163L47.4047 50.2784ZM47.8196 50.4319L47.4047 50.2784L47.0577 51.2163L47.4726 51.3698L47.8196 50.4319ZM57.5681 60.1804C55.8969 55.664 52.336 52.1031 47.8196 50.4319L47.4726 51.3698C51.7153 52.9397 55.0603 56.2848 56.6302 60.5274L57.5681 60.1804ZM57.7216 60.5953L57.5681 60.1804L56.6302 60.5274L56.7838 60.9423L57.7216 60.5953ZM60.5352 60.5953C60.0519 61.9012 58.2049 61.9012 57.7216 60.5953L56.7838 60.9423C57.5892 63.1189 60.6676 63.1189 61.473 60.9424L60.5352 60.5953ZM60.6887 60.1804L60.5352 60.5953L61.473 60.9424L61.6266 60.5274L60.6887 60.1804ZM70.4372 50.4319C65.9208 52.1031 62.3599 55.664 60.6887 60.1804L61.6266 60.5274C63.1965 56.2848 66.5416 52.9397 70.7842 51.3698L70.4372 50.4319ZM70.8521 50.2784L70.4372 50.4319L70.7842 51.3698L71.1991 51.2163L70.8521 50.2784ZM70.8521 47.4648C72.158 47.9481 72.158 49.7952 70.8521 50.2784L71.1991 51.2163C73.3757 50.4109 73.3757 47.3324 71.1991 46.527L70.8521 47.4648ZM70.4372 47.3113L70.8521 47.4648L71.1991 46.527L70.7842 46.3735L70.4372 47.3113ZM60.6887 37.5629C62.3599 42.0792 65.9208 45.6401 70.4372 47.3113L70.7842 46.3735C66.5416 44.8035 63.1965 41.4585 61.6266 37.2158L60.6887 37.5629Z" fill="black" mask="url(#path-4-outside-1_1_300)"/>
</g>
<g id="Mask group">
<mask id="mask0_1_300" style="mask-type:alpha" maskUnits="userSpaceOnUse" x="30" y="20" width="58" height="58">
<path id="Subtract_2" fill-rule="evenodd" clip-rule="evenodd" d="M59.1284 77.1495C74.7454 77.1495 87.4054 64.4894 87.4054 48.8725C87.4054 33.2555 74.7454 20.5954 59.1284 20.5954C43.5114 20.5954 30.8514 33.2555 30.8514 48.8725C30.8514 64.4894 43.5114 77.1495 59.1284 77.1495ZM61.1576 37.3902L61.0041 36.9753C60.3598 35.234 57.897 35.234 57.2527 36.9753L57.0992 37.3902C55.4786 41.7697 52.0256 45.2227 47.6461 46.8432L47.2312 46.9968C45.49 47.6411 45.49 50.1039 47.2312 50.7482L47.6461 50.9017C52.0256 52.5223 55.4786 55.9752 57.0992 60.3548L57.2527 60.7697C57.897 62.5109 60.3598 62.5109 61.0041 60.7697L61.1576 60.3548C62.7782 55.9752 66.2312 52.5223 70.6107 50.9017L71.0256 50.7482C72.7668 50.1039 72.7669 47.6411 71.0256 46.9968L70.6107 46.8432C66.2312 45.2227 62.7782 41.7697 61.1576 37.3902Z" fill="#D9D9D9"/>
</mask>
<g mask="url(#mask0_1_300)">
<path id="Union" fill-rule="evenodd" clip-rule="evenodd" d="M69.0434 7.67419L12.9031 63.8144L13.6102 64.5215L69.7505 8.3813L69.0434 7.67419ZM49.669 49.9805L89.7483 9.14041L92.6031 11.9421L57.7369 47.4702L69.2043 44.2995L76.3778 42.316L71.1647 47.628L27.2518 92.3745L24.3969 89.5728L63.0968 50.1383L51.6294 53.309L44.4559 55.2925L49.669 49.9805ZM41.2532 85.8077L97.3934 29.6674L98.1005 30.3745L41.9603 86.5148L41.2532 85.8077Z" fill="url(#paint2_linear_1_300)"/>
</g>
</g>
<rect x="12.5" y="2.5" width="93" height="93" rx="11.5" stroke="#6F767E"/>
</g>
<defs>
<filter id="filter0_dd_1_300" x="0" y="0" width="118" height="118" filterUnits="userSpaceOnUse" color-interpolation-filters="sRGB">
<feFlood flood-opacity="0" result="BackgroundImageFix"/>
<feColorMatrix in="SourceAlpha" type="matrix" values="0 0 0 0 0 0 0 0 0 0 0 0 0 0 0 0 0 0 127 0" result="hardAlpha"/>
<feMorphology radius="2" operator="erode" in="SourceAlpha" result="effect1_dropShadow_1_300"/>
<feOffset dy="4"/>
<feGaussianBlur stdDeviation="3"/>
<feColorMatrix type="matrix" values="0 0 0 0 0 0 0 0 0 0 0 0 0 0 0 0 0 0 0.09 0"/>
<feBlend mode="normal" in2="BackgroundImageFix" result="effect1_dropShadow_1_300"/>
<feColorMatrix in="SourceAlpha" type="matrix" values="0 0 0 0 0 0 0 0 0 0 0 0 0 0 0 0 0 0 127 0" result="hardAlpha"/>
<feMorphology radius="3" operator="erode" in="SourceAlpha" result="effect2_dropShadow_1_300"/>
<feOffset dy="10"/>
<feGaussianBlur stdDeviation="7.5"/>
<feColorMatrix type="matrix" values="0 0 0 0 0 0 0 0 0 0 0 0 0 0 0 0 0 0 0.14 0"/>
<feBlend mode="normal" in2="effect1_dropShadow_1_300" result="effect2_dropShadow_1_300"/>
<feBlend mode="normal" in="SourceGraphic" in2="effect2_dropShadow_1_300" result="shape"/>
</filter>
<filter id="filter1_di_1_300" x="30.3514" y="20.0946" width="60.554" height="60.5541" filterUnits="userSpaceOnUse" color-interpolation-filters="sRGB">
<feFlood flood-opacity="0" result="BackgroundImageFix"/>
<feColorMatrix in="SourceAlpha" type="matrix" values="0 0 0 0 0 0 0 0 0 0 0 0 0 0 0 0 0 0 127 0" result="hardAlpha"/>
<feOffset dx="3" dy="3"/>
<feComposite in2="hardAlpha" operator="out"/>
<feColorMatrix type="matrix" values="0 0 0 0 0 0 0 0 0 0 0 0 0 0 0 0 0 0 1 0"/>
<feBlend mode="normal" in2="BackgroundImageFix" result="effect1_dropShadow_1_300"/>
<feBlend mode="normal" in="SourceGraphic" in2="effect1_dropShadow_1_300" result="shape"/>
<feColorMatrix in="SourceAlpha" type="matrix" values="0 0 0 0 0 0 0 0 0 0 0 0 0 0 0 0 0 0 127 0" result="hardAlpha"/>
<feOffset dx="1" dy="1"/>
<feGaussianBlur stdDeviation="1.5"/>
<feComposite in2="hardAlpha" operator="arithmetic" k2="-1" k3="1"/>
<feColorMatrix type="matrix" values="0 0 0 0 1 0 0 0 0 0.9 0 0 0 0 0 0 0 0 1 0"/>
<feBlend mode="normal" in2="shape" result="effect2_innerShadow_1_300"/>
</filter>
<linearGradient id="paint0_linear_1_300" x1="58.5" y1="3" x2="58.5" y2="96" gradientUnits="userSpaceOnUse">
<stop stop-color="#5E53FF"/>
<stop offset="1" stop-color="#3730A3"/>
</linearGradient>
<linearGradient id="paint1_linear_1_300" x1="43.3265" y1="24.753" x2="74.0986" y2="72.1586" gradientUnits="userSpaceOnUse">
<stop stop-color="#FCD34D"/>
<stop offset="0.5" stop-color="#FBBF24"/>
<stop offset="1" stop-color="#F59E0B"/>
</linearGradient>
<linearGradient id="paint2_linear_1_300" x1="45.3256" y1="23.7426" x2="74.6604" y2="71.9546" gradientUnits="userSpaceOnUse">
<stop stop-color="white" stop-opacity="0.39"/>
<stop offset="1" stop-color="white" stop-opacity="0.14"/>
</linearGradient>
</defs>
</svg>
