<svg width="25" height="24" viewBox="0 0 25 24" fill="none" xmlns="http://www.w3.org/2000/svg">
<g id="Socials/Twitter">
<g id="Vector">
<path d="M14.9994 5.36183C16.1358 4.76975 17.6474 4.83891 18.8176 5.93103C19.0027 6.10386 19.2466 6.19998 19.4999 6.19998C19.7688 6.19998 20.0428 6.15628 20.3026 6.09234C20.1429 6.30963 19.9724 6.51321 19.7928 6.69287C19.5297 6.9559 19.4344 7.3432 19.5454 7.69825C20.7823 11.6562 19.8897 15.0928 17.6574 17.2709C15.4164 19.4576 11.6435 20.55 6.78699 19.4052C6.70409 19.3856 6.62465 19.3669 6.54852 19.3489C6.71301 19.2715 6.89323 19.1872 7.0902 19.095C7.83597 18.7461 8.53513 18.2979 9.15838 17.7526C9.43222 17.5129 9.5543 17.1435 9.47713 16.7879C9.39997 16.4323 9.13575 16.1467 8.78723 16.0422C4.90411 14.8772 3.47607 10.1284 5.52365 7.04199C6.43515 8.03193 7.32631 8.80546 8.41185 9.31119C9.58462 9.85755 10.8884 10.0478 12.5293 9.99955C12.826 9.99082 13.1035 9.85072 13.2867 9.61716C13.4699 9.38359 13.5399 9.0807 13.4777 8.79045C13.128 7.15858 13.8846 5.94264 14.9994 5.36183ZM19.8142 4.15277C18.0347 2.74856 15.7932 2.6931 14.0753 3.58813C12.5202 4.39837 11.3962 5.98779 11.3909 7.98782C10.5054 7.93434 9.83576 7.76816 9.25644 7.49827C8.45355 7.12423 7.7279 6.5071 6.81492 5.48907C6.8093 5.4828 6.80358 5.47641 6.79778 5.46994C6.71162 5.37377 6.60671 5.25668 6.50425 5.16194C6.38266 5.04952 6.20041 4.90586 5.94299 4.82295C5.6113 4.71612 5.23116 4.73153 4.90921 4.86486C4.51716 5.02722 4.27426 5.35681 4.16161 5.50965C4.15048 5.52475 4.14062 5.53813 4.13202 5.54945C1.36313 9.19171 2.44973 14.7973 6.44777 17.1835C6.38004 17.2179 6.31164 17.2512 6.2426 17.2835L6.2178 17.2951C5.565 17.6005 5.04459 17.844 4.67966 18.0339C4.49658 18.1291 4.32091 18.227 4.17599 18.3261C4.10331 18.3757 4.01679 18.4402 3.93419 18.5195C3.86064 18.5902 3.73143 18.7277 3.64661 18.9332C3.56497 19.131 3.50435 19.3785 3.53353 19.6606C3.56271 19.9427 3.6727 20.1725 3.79309 20.3494C3.99093 20.6401 4.28318 20.7726 4.3923 20.8209C4.54635 20.8892 4.72231 20.946 4.89524 20.9959C5.23764 21.0948 5.71412 21.2071 6.2983 21.3448L6.32812 21.3518C11.6815 22.6138 16.2109 21.4767 19.0542 18.7023C21.7901 16.0327 22.7975 12.0075 21.6166 7.65731C21.9211 7.29198 22.183 6.90606 22.4035 6.53961L22.4235 6.50631C22.5569 6.2846 22.6924 6.05945 22.7848 5.86511C22.8731 5.67931 23.0276 5.31768 22.9439 4.89023C22.8478 4.39915 22.5141 3.98922 22.0527 3.79544C21.6241 3.61539 21.1949 3.72351 21.0104 3.77139C20.7816 3.83081 20.4993 3.92979 20.1993 4.035L20.1632 4.04766C20.0304 4.09422 19.9139 4.12859 19.8142 4.15277Z" fill="#C8CBCC"/>
<path d="M14.9994 5.36183C16.1358 4.76975 17.6474 4.83891 18.8176 5.93103C19.0027 6.10386 19.2466 6.19998 19.4999 6.19998C19.7688 6.19998 20.0428 6.15628 20.3026 6.09234C20.1429 6.30963 19.9724 6.51321 19.7928 6.69287C19.5297 6.9559 19.4344 7.3432 19.5454 7.69825C20.7823 11.6562 19.8897 15.0928 17.6574 17.2709C15.4164 19.4576 11.6435 20.55 6.78699 19.4052C6.70409 19.3856 6.62465 19.3669 6.54852 19.3489C6.71301 19.2715 6.89323 19.1872 7.0902 19.095C7.83597 18.7461 8.53513 18.2979 9.15838 17.7526C9.43222 17.5129 9.5543 17.1435 9.47713 16.7879C9.39997 16.4323 9.13575 16.1467 8.78723 16.0422C4.90411 14.8772 3.47607 10.1284 5.52365 7.04199C6.43515 8.03193 7.32631 8.80546 8.41185 9.31119C9.58462 9.85755 10.8884 10.0478 12.5293 9.99955C12.826 9.99082 13.1035 9.85072 13.2867 9.61716C13.4699 9.38359 13.5399 9.0807 13.4777 8.79045C13.128 7.15858 13.8846 5.94264 14.9994 5.36183ZM19.8142 4.15277C18.0347 2.74856 15.7932 2.6931 14.0753 3.58813C12.5202 4.39837 11.3962 5.98779 11.3909 7.98782C10.5054 7.93434 9.83576 7.76816 9.25644 7.49827C8.45355 7.12423 7.7279 6.5071 6.81492 5.48907C6.8093 5.4828 6.80358 5.47641 6.79778 5.46994C6.71162 5.37377 6.60671 5.25668 6.50425 5.16194C6.38266 5.04952 6.20041 4.90586 5.94299 4.82295C5.6113 4.71612 5.23116 4.73153 4.90921 4.86486C4.51716 5.02722 4.27426 5.35681 4.16161 5.50965C4.15048 5.52475 4.14062 5.53813 4.13202 5.54945C1.36313 9.19171 2.44973 14.7973 6.44777 17.1835C6.38004 17.2179 6.31164 17.2512 6.2426 17.2835L6.2178 17.2951C5.565 17.6005 5.04459 17.844 4.67966 18.0339C4.49658 18.1291 4.32091 18.227 4.17599 18.3261C4.10331 18.3757 4.01679 18.4402 3.93419 18.5195C3.86064 18.5902 3.73143 18.7277 3.64661 18.9332C3.56497 19.131 3.50435 19.3785 3.53353 19.6606C3.56271 19.9427 3.6727 20.1725 3.79309 20.3494C3.99093 20.6401 4.28318 20.7726 4.3923 20.8209C4.54635 20.8892 4.72231 20.946 4.89524 20.9959C5.23764 21.0948 5.71412 21.2071 6.2983 21.3448L6.32812 21.3518C11.6815 22.6138 16.2109 21.4767 19.0542 18.7023C21.7901 16.0327 22.7975 12.0075 21.6166 7.65731C21.9211 7.29198 22.183 6.90606 22.4035 6.53961L22.4235 6.50631C22.5569 6.2846 22.6924 6.05945 22.7848 5.86511C22.8731 5.67931 23.0276 5.31768 22.9439 4.89023C22.8478 4.39915 22.5141 3.98922 22.0527 3.79544C21.6241 3.61539 21.1949 3.72351 21.0104 3.77139C20.7816 3.83081 20.4993 3.92979 20.1993 4.035L20.1632 4.04766C20.0304 4.09422 19.9139 4.12859 19.8142 4.15277Z" stroke="black" stroke-linecap="round" stroke-linejoin="round"/>
</g>
</g>
</svg>
