<svg width="24" height="24" viewBox="0 0 24 24" fill="none" xmlns="http://www.w3.org/2000/svg">
<g id="Shield/Check">
<path id="Vector" d="M8.99998 12.019L11.0067 14.0236C11.9719 12.3359 13.3076 10.8894 14.9132 9.79301L15 9.73372M10.7503 2.36794L5.36268 4.31346C4.21349 4.72845 3.43079 5.79891 3.38383 7.01983L3.25658 10.3284C3.09889 14.4281 5.23586 18.2748 8.79995 20.307L10.3206 21.174C11.2214 21.6877 12.3236 21.6997 13.2354 21.2058L14.7241 20.3994C18.5414 18.3317 20.7855 14.2122 20.4526 9.88357L20.2256 6.93307C20.1351 5.75651 19.3633 4.74229 18.2534 4.3415L12.7881 2.36794C12.1297 2.13016 11.4088 2.13016 10.7503 2.36794Z" stroke="white" stroke-width="2" stroke-linecap="round" stroke-linejoin="round"/>
</g>
</svg>
