<svg width="25" height="24" viewBox="0 0 25 24" fill="none" xmlns="http://www.w3.org/2000/svg">
<g id="Dropdown/down">
<g id="Vector">
<path d="M7.91267 9.19078C8.35963 8.86636 8.98496 8.96571 9.30937 9.41267C10.2355 10.6886 11.3072 11.8418 12.5001 12.8476C13.693 11.8418 14.7647 10.6886 15.6908 9.41267C16.0152 8.96571 16.6405 8.86636 17.0875 9.19078C17.5344 9.51519 17.6338 10.1405 17.3094 10.5875C16.243 12.0566 15.0002 13.3798 13.6108 14.5255C13.6019 14.5328 13.5917 14.5415 13.5801 14.5513C13.4659 14.6478 13.2216 14.8543 12.9075 14.9439C12.645 15.0188 12.3551 15.0188 12.0926 14.9439C11.7785 14.8543 11.5343 14.6478 11.4201 14.5513C11.4085 14.5415 11.3982 14.5328 11.3894 14.5255C9.99994 13.3798 8.75709 12.0566 7.69078 10.5875C7.36636 10.1405 7.46571 9.51519 7.91267 9.19078Z" fill="white"/>
</g>
</g>
</svg>
