<svg width="24" height="24" viewBox="0 0 24 24" fill="none" xmlns="http://www.w3.org/2000/svg">
<g id="NFT">
<g id="Vector">
<path d="M10.9928 1.67831C11.6574 1.54164 12.3428 1.54164 13.0073 1.67831C13.7937 1.84005 14.516 2.25376 15.5938 2.85254C16.5078 3.36032 17.4217 3.86843 18.3359 4.37585C19.3967 4.96464 20.1298 5.37156 20.6769 5.96524C21.1593 6.48868 21.5243 7.1091 21.7477 7.78498C22.0009 8.55155 22.0006 9.39003 22.0001 10.6033C21.9998 11.5344 21.9998 12.4655 22.0001 13.3967C22.0006 14.6099 22.0009 15.4484 21.7477 16.215C21.5243 16.8908 21.1593 17.5113 20.6769 18.0347C20.1298 18.6284 19.3967 19.0353 18.3359 19.6241C17.377 20.1563 16.4183 20.6889 15.4599 21.2219C14.4552 21.7805 13.7607 22.1667 13.0073 22.3216C12.3428 22.4583 11.6574 22.4583 10.9928 22.3216C10.2395 22.1667 9.54492 21.7805 8.54029 21.2219C8.49624 21.1974 8.4516 21.1725 8.40632 21.1474L5.80633 19.703C5.75833 19.6763 5.71099 19.65 5.66428 19.6241C4.60347 19.0353 3.87035 18.6284 3.32325 18.0347C2.84087 17.5113 2.47582 16.8908 2.25251 16.215C1.99923 15.4484 1.99956 14.6099 2.00004 13.3967C2.00006 13.3432 2.00008 13.2891 2.00008 13.2342V10.7658C2.00008 10.7109 2.00006 10.6567 2.00004 10.6033C1.99956 9.39003 1.99923 8.55155 2.25251 7.78498C2.47582 7.1091 2.84087 6.48868 3.32325 5.96524C3.87035 5.37156 4.60347 4.96464 5.66428 4.37585C5.71099 4.34993 5.75833 4.32365 5.80633 4.29699L8.40632 2.85254C8.4516 2.82739 8.49625 2.80256 8.5403 2.77807C9.54492 2.21945 10.2395 1.83326 10.9928 1.67831ZM12.6044 3.63731C12.2057 3.5553 11.7945 3.5553 11.3957 3.63731C10.9808 3.72266 10.5686 3.93917 9.37761 4.60086L6.77761 6.0453C5.51935 6.74433 5.09521 6.9937 4.79398 7.32058C4.50456 7.63464 4.28552 8.00689 4.15154 8.41242C4.01209 8.83449 4.00008 9.32636 4.00008 10.7658V13.2342C4.00008 14.6736 4.01209 15.1655 4.15154 15.5875C4.28552 15.993 4.50456 16.3653 4.79398 16.6794C5.09521 17.0062 5.51935 17.2556 6.77761 17.9546L8.07876 18.6775C8.73198 13.2259 13.3725 8.99997 19.0001 8.99997H19.9614C19.939 8.75705 19.9038 8.57928 19.8486 8.41242C19.7146 8.00689 19.4956 7.63464 19.2062 7.32058C18.905 6.9937 18.4808 6.74433 17.2226 6.0453L14.6226 4.60086C13.4315 3.93917 13.0194 3.72266 12.6044 3.63731ZM20.0001 11H19.0001C14.115 11 10.1389 14.892 10.0036 19.7444C10.7332 20.1419 11.0635 20.2943 11.3957 20.3626C11.7945 20.4446 12.2057 20.4446 12.6044 20.3626C13.0194 20.2773 13.4315 20.0608 14.6226 19.3991L17.2226 17.9546C18.4808 17.2556 18.905 17.0062 19.2062 16.6794C19.4956 16.3653 19.7146 15.993 19.8486 15.5875C19.9881 15.1655 20.0001 14.6736 20.0001 13.2342V11ZM7.00008 8.99997C7.00008 7.8954 7.89551 6.99997 9.00008 6.99997C10.1047 6.99997 11.0001 7.8954 11.0001 8.99997C11.0001 10.1045 10.1047 11 9.00008 11C7.89551 11 7.00008 10.1045 7.00008 8.99997Z" fill="white"/>
</g>
</g>
</svg>
